PathFileType	4	(X/Y/Z)	..\data\2014051\dynamic\2014051_C4_04.trc
DataRate	CameraRate	NumFrames	NumMarkers	Units	OrigDataRate	OrigDataStartFrame	OrigNumFrames
100.000000	100.000000	4	44	mm	100.000000	49	199
Frame#	Time	L_IAS			L_IPS			R_IPS			R_IAS			L_FTC			L_FLE			L_FME			L_FAX			L_TTC			L_FAL			L_TAM			L_FCC			L_FM1			L_FM2			L_FM5			R_FTC			R_FLE			R_FME			R_FAX			R_TTC			R_FAL			R_TAM			R_FCC			R_FM1			R_FM2			R_FM5			CV7			TV10			SXS			SJN			L_SAE			L_HLE			L_HME			L_RSP			L_UHE			L_HM2			L_HM5			R_SAE			R_HLE			R_HME			R_RSP			R_UHE			R_HM2			R_HM5			
		X1	Y1	Z1	X2	Y2	Z2	X3	Y3	Z3	X4	Y4	Z4	X5	Y5	Z5	X6	Y6	Z6	X7	Y7	Z7	X8	Y8	Z8	X9	Y9	Z9	X10	Y10	Z10	X11	Y11	Z11	X12	Y12	Z12	X13	Y13	Z13	X14	Y14	Z14	X15	Y15	Z15	X16	Y16	Z16	X17	Y17	Z17	X18	Y18	Z18	X19	Y19	Z19	X20	Y20	Z20	X21	Y21	Z21	X22	Y22	Z22	X23	Y23	Z23	X24	Y24	Z24	X25	Y25	Z25	X26	Y26	Z26	X27	Y27	Z27	X28	Y28	Z28	X29	Y29	Z29	X30	Y30	Z30	X31	Y31	Z31	X32	Y32	Z32	X33	Y33	Z33	X34	Y34	Z34	X35	Y35	Z35	X36	Y36	Z36	X37	Y37	Z37	X38	Y38	Z38	X39	Y39	Z39	X40	Y40	Z40	X41	Y41	Z41	X42	Y42	Z42	X43	Y43	Z43	X44	Y44	Z44	

50	0.49	-713.5719604492189	1105.139770507813	155.6672821044921	-919.3150634765627	1109.959106445313	260.7682800292968	-915.3286743164065	1111.751586914063	329.7604064941406	-704.6836547851564	1100.270263671875	421.8364868164062	-764.1886596679689	984.4885253906252	91.64040374755851	-623.6044921875001	577.8496093750001	129.0604400634765	-618.7775878906251	581.6553955078126	260.3601684570312	-637.0083618164064	506.8236083984376	124.9107894897461	-578.9535522460939	489.7398986816407	183.6636047363281	-682.8832397460939	93.63606262207033	152.5838317871093	-660.4556884765626	113.6309661865235	246.4954528808593	-732.2503662109376	48.94773864746095	208.0825805664062	-518.9397583007814	43.69005203247071	234.9546813964844	-522.4229736328126	54.04357910156251	177.6944732666015	-558.6082763671876	38.1948585510254	135.5286865234375	-782.2130126953128	971.2883300781252	478.2901306152344	-833.1304931640627	540.5320434570314	397.1977844238281	-835.8980102539065	550.7647705078126	268.0265197753906	-869.4682617187502	477.0605468750001	399.8137817382812	-804.1520996093752	463.3291015625001	331.2100830078124	-911.3411254882815	65.83428955078126	335.4833374023437	-870.338073730469	88.38500976562501	247.3766021728515	-956.283630371094	23.66830825805664	271.8159179687499	-729.7711181640626	21.30795478820801	271.9249267578124	-737.0910034179689	37.16746902465821	330.5145568847656	-785.470642089844	23.25079345703125	378.2853698730468	-873.4232177734377	1638.047729492188	275.4919128417968	-911.8295898437502	1275.566284179688	296.0634155273437	-694.0543212890626	1362.877563476563	275.64599609375	-746.9625244140626	1539.047485351563	267.8689270019531	-802.460144042969	1561.066040039063	86.39749145507804	-855.5901489257815	1178.614624023438	1.39668488502492	-886.5897216796877	1165.737060546875	85.11135101318349	-727.8988647460939	921.7319335937502	51.29094314575187	-778.8197021484377	914.438171386719	-17.29867362976084	-696.1115112304689	811.7552490234377	50.54587554931634	-782.0483398437502	818.3540649414065	-18.16017150878916	-764.557800292969	1557.109375	471.2069702148438	-787.6784667968753	1200.128295898438	589.2699584960938	-837.0262451171878	1172.202880859375	508.921875	-665.7896118164065	945.258483886719	519.0486450195312	-699.9412231445315	930.904479980469	593.5051879882812	-603.134704589844	844.859069824219	526.5181274414062	-698.156921386719	831.6488037109377	586.7960205078125	
51	0.5	-703.7908935546876	1104.055908203125	156.0621795654296	-909.7171020507815	1109.12890625	260.8603210449218	-905.7972412109377	1110.88720703125	329.8726196289062	-695.3171386718751	1098.919921875	422.2201843261719	-754.5518798828126	983.4578247070315	92.02084350585929	-613.7788085937501	576.7584838867189	130.7999725341796	-609.4650268554689	580.7152099609376	262.0725402832031	-624.9566650390626	505.4620361328126	126.6379699707031	-566.5256347656251	490.6357727050782	185.5151672363281	-651.3358764648439	90.57329559326173	154.9455413818359	-630.1085205078126	111.7727737426758	248.8470001220703	-699.0142822265626	44.23294067382813	210.5429534912109	-485.9165954589845	47.48054122924805	238.6391296386719	-489.3231811523439	57.11526107788087	181.2583312988281	-524.6648559570314	39.5855941772461	138.9800872802734	-773.3662719726566	970.2481689453127	478.7665100097656	-829.2761840820315	540.0368041992189	397.3246459960938	-832.2761840820315	550.5742797851564	268.0405883789062	-866.2009887695315	476.9016723632814	399.9053039550781	-801.121765136719	462.6279907226564	331.2886962890624	-911.2879028320315	65.93415832519533	335.3541564941406	-870.068298339844	88.35549926757814	247.2706451416015	-956.2203369140627	23.75923728942871	271.5880737304687	-729.6771240234376	21.33785247802735	272.0335693359374	-737.0439453125001	37.08798980712891	330.6806335449218	-785.4578857421877	23.13138008117676	378.4303894042968	-863.082702636719	1637.128784179688	275.6454162597656	-902.0069580078127	1274.648071289063	296.3582458496093	-684.0231323242189	1361.744140625	275.87060546875	-736.6923828125001	1537.983154296875	267.9780273437499	-792.3283691406252	1559.886840820313	86.51137542724601	-846.9034423828127	1177.79833984375	1.509423971176044	-877.775329589844	1164.984008789063	85.28656768798818	-721.1752319335939	919.742370605469	50.39291763305657	-772.3598632812502	913.0574951171877	-18.13641929626475	-690.1022949218751	809.625915527344	49.41166687011712	-776.4390869140627	816.9907226562502	-19.29308319091807	-754.065856933594	1556.10205078125	471.2779235839844	-776.3535766601566	1199.289672851563	589.8038940429688	-826.0532226562503	1171.097534179688	509.4723815917969	-653.7990722656252	944.8966064453127	519.2869262695312	-687.7561645507815	930.373962402344	593.7994384765625	-590.674743652344	844.7835083007815	526.6400146484375	-685.6063232421877	831.1188964843752	587.0519409179688	
52	0.51	-693.9176025390626	1102.86083984375	156.4934082031249	-900.0509033203127	1108.241943359375	260.8948059082031	-896.2005004882815	1109.954956054688	329.9306945800781	-685.9572753906251	1097.543090820313	422.6091003417969	-744.8400268554689	982.3188476562502	92.40842437744134	-604.4215087890626	575.4185180664064	132.5277404785156	-600.5451660156251	579.5337524414064	263.7795104980469	-613.4907836914064	503.9759521484376	128.3654479980468	-554.6674804687501	491.3630981445314	187.2967376708984	-620.6498413085939	88.32347106933595	157.3529815673828	-600.4399414062501	110.6648406982422	251.1659088134765	-666.4888305664064	40.46527862548829	213.1714477539062	-453.8882141113283	51.96689605712892	241.97021484375	-457.2927551269532	60.85258102416994	184.4835662841797	-491.8532714843751	41.71442794799805	142.2000732421875	-764.4312744140627	969.1599731445315	479.2527465820312	-825.0446777343752	539.4826660156251	397.4018859863281	-828.2424316406252	550.3553466796876	268.0226745605468	-862.5483398437502	476.704803466797	399.9549560546875	-797.7553710937502	461.8599853515626	331.3217468261718	-911.1750488281252	66.0701141357422	335.1779174804687	-869.7075195312502	88.34349060058595	247.135025024414	-956.1128540039065	23.91612434387207	271.3054504394531	-729.5539550781251	21.34975242614746	272.1360473632812	-736.9732666015626	36.99308395385743	330.8378906249999	-785.4470825195315	23.02442169189453	378.5462036132812	-852.7168579101565	1636.1298828125	275.7731018066406	-892.1505126953127	1273.659423828125	296.5506896972656	-673.9603271484376	1360.539428710938	276.0397338867188	-726.3978881835939	1536.846069335938	268.0469970703124	-782.1689453125002	1558.657104492188	86.58449554443351	-838.1473388671877	1176.908081054688	1.619988322257893	-868.8257446289065	1164.180786132813	85.47602844238273	-714.2998046875001	917.7471313476565	49.48162078857415	-765.7742919921876	911.6507568359377	-18.95305633544931	-683.8231811523439	807.5490722656252	48.27672958374016	-770.674255371094	815.6135864257815	-20.39797401428233	-743.5639648437502	1554.99609375	471.3157653808594	-765.041931152344	1198.322143554688	590.2251586914062	-815.1848144531253	1169.894775390625	509.8769836425781	-641.869812011719	944.3756103515627	519.4757690429688	-675.680358886719	929.697692871094	594.026611328125	-578.3264770507815	844.5191650390627	526.747802734375	-673.1829223632815	830.4471435546877	587.2442016601562	
53	0.52	-683.9473876953126	1101.57080078125	156.9527740478515	-890.3132934570315	1107.306884765625	260.8721313476562	-886.5377197265627	1108.967407226563	329.9338684082031	-676.5930175781251	1096.1494140625	423.0036621093751	-735.0383300781251	981.0918579101565	92.79766845703118	-595.4822387695314	573.8622436523439	134.2337493896484	-591.9996337890626	578.1539916992189	265.4732360839844	-602.5850219726564	502.3737792968751	130.0862731933593	-543.3477172851564	491.9254455566407	189.0093994140625	-590.9961547851564	86.82561492919923	159.7995300292968	-571.6012573242189	110.2647171020508	253.4505920410156	-634.8524169921876	37.58441543579102	215.9654235839843	-422.9771118164064	57.08129882812501	244.8881988525391	-426.4732666015626	65.18829345703126	187.3115081787109	-460.3336486816407	44.51295471191407	145.139907836914	-755.422546386719	968.0322265625002	479.7432556152344	-820.437438964844	538.8752441406251	397.4241943359375	-823.7459106445315	550.0979614257814	267.9777526855468	-858.5173339843752	476.4774169921876	399.9503173828125	-794.036560058594	461.0239257812501	331.3110961914062	-910.9973754882815	66.25130462646486	334.9404602050781	-869.2393798828127	88.36304473876955	246.9644012451171	-955.944763183594	24.1538486480713	270.9449462890624	-729.4017944335939	21.34777641296387	272.2362976074218	-736.8818359375001	36.88298416137696	330.9868164062499	-785.4421997070315	22.93243789672852	378.6266479492187	-842.3247680664065	1635.063110351563	275.8775939941406	-882.2559814453127	1272.615966796875	296.6407775878906	-663.8662719726564	1359.273193359375	276.1585388183594	-716.0771484375001	1535.647583007813	268.0775451660156	-771.9776000976565	1557.387329101563	86.61808013916007	-829.3176879882815	1175.953735351563	1.724213361740011	-859.7426757812502	1163.331420898438	85.67044830322257	-707.2684326171876	915.7550048828127	48.55642318725579	-759.0560302734376	910.2263793945315	-19.74900436401377	-677.2980957031251	805.5195922851565	47.13860702514641	-764.7470703125001	814.229919433594	-21.47077369689951	-733.0494384765627	1553.8076171875	471.3207702636719	-753.7542114257815	1197.238403320313	590.529296875	-804.3988037109378	1168.606811523438	510.1388854980469	-630.002624511719	943.7055664062502	519.6159057617188	-663.7153320312502	928.8867187500002	594.1873779296875	-566.0950927734377	844.072204589844	526.8416748046875	-660.8956298828127	829.6436157226565	587.3727416992188	
